<?xml version="1.0" encoding="utf-8"?>
<!-- Generator: Adobe Illustrator 24.0.3, SVG Export Plug-In . SVG Version: 6.00 Build 0)  -->
<svg version="1.1" id="Layer_2_1_" xmlns="http://www.w3.org/2000/svg" xmlns:xlink="http://www.w3.org/1999/xlink" x="0px" y="0px"
	 viewBox="0 0 200 135.2" style="enable-background:new 0 0 200 135.2;" xml:space="preserve">
<style type="text/css">
	.st0{fill:#46747B;}
	.st1{font-family:'Arial-BoldMT';}
	.st2{font-size:6.6897px;}
	.st3{font-size:4.2px;}
	.st4{fill:none;}
	.st5{font-family:'ArialMT';}
	.st6{font-size:3.2px;}
	.st7{fill:#AFD4DC;stroke:#46747B;stroke-width:0.25;stroke-miterlimit:10;}
</style>
<text transform="matrix(1 0 0 1 74.2704 12.944)" class="st0 st1 st2">nim commands</text>
<g transform="matrix(1,0,0,1.15673,1125.43,-1565.19)">
	<g transform="matrix(192,0,0,192,437.357,1595.37)">
		<path class="st0" d="M-7.4-1.2L-7.4-1.2L-7.4-1.2L-7.4-1.2L-7.4-1.2L-7.4-1.2L-7.4-1.2L-7.4-1.2L-7.4-1.2L-7.4-1.2L-7.4-1.2
			L-7.4-1.2L-7.4-1.2L-7.4-1.2L-7.4-1.2L-7.4-1.2L-7.4-1.2L-7.4-1.2L-7.4-1.2L-7.4-1.2L-7.4-1.2L-7.4-1.2L-7.4-1.2L-7.4-1.2
			L-7.4-1.2L-7.4-1.2z"/>
	</g>
</g>
<g transform="matrix(1,0,0,1.15673,74.0109,-843.74)">
	<g transform="matrix(192,0,0,192,440.717,1595.37)">
		<path class="st0" d="M-2.4-4.2L-2.4-4.2L-2.4-4.2L-2.4-4.2L-2.4-4.2L-2.4-4.2L-2.4-4.2L-2.4-4.2C-2.4-4.1-2.4-4.1-2.4-4.2
			C-2.4-4.1-2.4-4.1-2.4-4.2L-2.4-4.2C-2.4-4.1-2.4-4.1-2.4-4.2C-2.4-4.1-2.4-4.1-2.4-4.2L-2.4-4.2L-2.4-4.2L-2.4-4.2L-2.4-4.2
			L-2.4-4.2L-2.4-4.2L-2.4-4.2L-2.4-4.2L-2.4-4.2L-2.4-4.2L-2.4-4.2L-2.4-4.2L-2.4-4.2L-2.4-4.2L-2.4-4.2L-2.4-4.2L-2.4-4.2
			L-2.4-4.2z"/>
	</g>
</g>
<g transform="matrix(1,0,0,1.15673,1126.01,-843.74)">
	<g transform="matrix(192,0,0,192,436.877,1595.37)">
		<path class="st0" d="M-7.4-4.2L-7.4-4.2L-7.4-4.2L-7.4-4.2L-7.4-4.2L-7.4-4.2L-7.4-4.2L-7.4-4.2L-7.4-4.2L-7.4-4.2L-7.4-4.2
			L-7.4-4.2L-7.4-4.2L-7.4-4.2L-7.4-4.2L-7.4-4.2z M-7.4-4.2L-7.4-4.2L-7.4-4.2L-7.4-4.2z"/>
	</g>
</g>
<text transform="matrix(1 0 0 1 16.3596 29.4828)" class="st0 st1 st3">Credential Management Commands </text>
<rect x="34.3" y="35.5" class="st4" width="60.1" height="28.1"/>
<rect x="11.4" y="35.5" class="st4" width="22.9" height="28.1"/>
<g>
	<text transform="matrix(1 0 0 1 35.9726 37.8929)" class="st0 st5 st6">manage Nimbella namespace </text>
	<text transform="matrix(1 0 0 1 35.9726 41.6929)" class="st0 st5 st6">credentials</text>
	<text transform="matrix(1 0 0 1 35.9726 45.5929)" class="st0 st5 st6">List all your Nimbella namespaces</text>
	<text transform="matrix(1 0 0 1 35.9726 49.3929)" class="st0 st5 st6">Gain access to a Nimbella namespace</text>
	<text transform="matrix(1 0 0 1 35.9726 53.2929)" class="st0 st5 st6">Drop access to a Nimbella namespace</text>
	<text transform="matrix(1 0 0 1 35.9726 57.0929)" class="st0 st5 st6">Switch to a different Nimballa </text>
	<text transform="matrix(1 0 0 1 35.9726 60.8929)" class="st0 st5 st6">namespace</text>
	<text transform="matrix(1 0 0 1 14.5467 37.8929)" class="st0 st5 st6">auth</text>
	<text transform="matrix(1 0 0 1 14.5467 45.5929)" class="st0 st5 st6">auth:list</text>
	<text transform="matrix(1 0 0 1 14.5467 49.3929)" class="st0 st5 st6">auth:login</text>
	<text transform="matrix(1 0 0 1 14.5467 53.2929)" class="st0 st5 st6">auth:logout</text>
	<text transform="matrix(1 0 0 1 14.5467 57.0929)" class="st0 st5 st6">auth:switch</text>
</g>
<text transform="matrix(1 0 0 1 21.3789 88.141)" class="st0 st1 st3">Entity Management Commands</text>
<rect x="45.7" y="91.9" class="st4" width="44.2" height="27"/>
<rect x="16.1" y="91.9" class="st4" width="29.6" height="27"/>
<g>
	<text transform="matrix(1 0 0 1 50.5181 95.6117)" class="st0 st5 st6">work with actions</text>
	<text transform="matrix(1 0 0 1 50.5181 99.4117)" class="st0 st5 st6">work with activations</text>
	<text transform="matrix(1 0 0 1 50.5181 103.3117)" class="st0 st5 st6">work with namespaces</text>
	<text transform="matrix(1 0 0 1 50.5181 107.1117)" class="st0 st5 st6">work with packages</text>
	<text transform="matrix(1 0 0 1 50.5181 111.0117)" class="st0 st5 st6">work with routes</text>
	<text transform="matrix(1 0 0 1 50.5181 114.8117)" class="st0 st5 st6">work with rules</text>
	<text transform="matrix(1 0 0 1 50.5181 118.6117)" class="st0 st5 st6">work with triggers</text>
	<text transform="matrix(1 0 0 1 22.4135 96.6117)" class="st0 st5 st6">action</text>
	<text transform="matrix(1 0 0 1 22.4135 100.4117)" class="st0 st5 st6">activation</text>
	<text transform="matrix(1 0 0 1 22.4135 104.3117)" class="st0 st5 st6">namespace</text>
	<text transform="matrix(1 0 0 1 22.4135 108.1117)" class="st0 st5 st6">package</text>
	<text transform="matrix(1 0 0 1 22.4135 112.0117)" class="st0 st5 st6">route</text>
	<text transform="matrix(1 0 0 1 22.4135 115.8117)" class="st0 st5 st6">rule</text>
	<text transform="matrix(1 0 0 1 22.4135 119.6117)" class="st0 st5 st6">trigger</text>
</g>
<text transform="matrix(1 0 0 1 114.7579 88.141)" class="st0 st1 st3">Entity Management Commands</text>
<rect x="129.6" y="93.7" class="st4" width="56.3" height="23.4"/>
<rect x="109.2" y="93.7" class="st4" width="20.4" height="23.4"/>
<g>
	<text transform="matrix(1 0 0 1 129.944 98.0118)" class="st0 st5 st6">display the full documentation of </text>
	<text transform="matrix(1 0 0 1 129.944 101.8118)" class="st0 st5 st6">this CLI</text>
	<text transform="matrix(1 0 0 1 129.944 105.7118)" class="st0 st5 st6">display help for nim</text>
	<text transform="matrix(1 0 0 1 129.944 109.5118)" class="st0 st5 st6">show information about this version </text>
	<text transform="matrix(1 0 0 1 129.944 113.4118)" class="st0 st5 st6">of nim</text>
	<text transform="matrix(1 0 0 1 129.944 117.2118)" class="st0 st5 st6">update the nim CLI</text>
	<text transform="matrix(1 0 0 1 111.0671 98.0118)" class="st0 st5 st6">doc</text>
	<text transform="matrix(1 0 0 1 111.0671 105.7118)" class="st0 st5 st6">help</text>
	<text transform="matrix(1 0 0 1 111.0671 109.5118)" class="st0 st5 st6">info</text>
	<text transform="matrix(1 0 0 1 111.0671 117.2118)" class="st0 st5 st6">update</text>
</g>
<text transform="matrix(1 0 0 1 108.2198 29.4828)" class="st0 st1 st3">Project-Level Deployment Commands</text>
<rect x="136.3" y="36.9" class="st4" width="49.5" height="23.6"/>
<rect x="109.2" y="36.9" class="st4" width="27.2" height="23.6"/>
<g>
	<text transform="matrix(1 0 0 1 137.6906 39.2903)" class="st0 st5 st6">manage and deploy Nimbella </text>
	<text transform="matrix(1 0 0 1 137.6906 43.0903)" class="st0 st5 st6">projects</text>
	<text transform="matrix(1 0 0 1 137.6906 46.9903)" class="st0 st5 st6">Create Nimbella projects</text>
	<text transform="matrix(1 0 0 1 137.6906 50.7903)" class="st0 st5 st6">Deploy Nimbella projects</text>
	<text transform="matrix(1 0 0 1 137.6906 54.6903)" class="st0 st5 st6">Watch Nimbella projects,</text>
	<text transform="matrix(1 0 0 1 137.6906 58.4902)" class="st0 st5 st6">deploying incrementally on </text>
	<text transform="matrix(1 0 0 1 137.6906 62.0000)" class="st0 st5 st6">change</text>
	<text transform="matrix(1 0 0 1 112.0303 39.2903)" class="st0 st5 st6">project</text>
	<text transform="matrix(1 0 0 1 112.0303 46.9903)" class="st0 st5 st6">project:create</text>
	<text transform="matrix(1 0 0 1 112.0303 50.7903)" class="st0 st5 st6">project:deploy</text>
	<text transform="matrix(1 0 0 1 112.0303 54.6903)" class="st0 st5 st6">project:watch</text>
</g>
<path class="st7" d="M187.4,20h-82.7c-0.2,0-0.4,0.2-0.4,0.4v47.7c0,0.2,0.2,0.4,0.4,0.4h82.7c0.2,0,0.4-0.2,0.4-0.4V20.4
	C187.7,20.2,187.6,20,187.4,20z M186.9,67.7h-81.8V20.7h81.8V67.7z"/>
<path class="st7" d="M94,20H11.3c-0.2,0-0.4,0.2-0.4,0.4v47.7c0,0.2,0.2,0.4,0.4,0.4H94c0.2,0,0.4-0.2,0.4-0.4V20.4
	C94.3,20.2,94.2,20,94,20z M93.5,67.7H11.8V20.7h81.8V67.7z"/>
<path class="st7" d="M187.4,78.4h-82.7c-0.2,0-0.4,0.2-0.4,0.4v47.7c0,0.2,0.2,0.4,0.4,0.4h82.7c0.2,0,0.4-0.2,0.4-0.4V78.8
	C187.7,78.6,187.6,78.4,187.4,78.4z M186.9,126.1h-81.8V79.2h81.8V126.1z"/>
<path class="st7" d="M94,78.4H11.3c-0.2,0-0.4,0.2-0.4,0.4v47.7c0,0.2,0.2,0.4,0.4,0.4H94c0.2,0,0.4-0.2,0.4-0.4V78.8
	C94.3,78.6,94.2,78.4,94,78.4z M93.5,126.1H11.8V79.2h81.8V126.1z"/>
<path class="st0" d="M54.1,21.2c0,0.5,0.1,0.8,0.3,1s0.5,0.3,1,0.3v0.4c-1.2,0-2-0.1-2.3-0.1c-0.4,0-1.2,0-2.4,0.1l-0.5,0v-0.4
	c0.5,0,0.9-0.1,1.2-0.3c0.3-0.2,0.4-0.6,0.4-1.1V17c0-0.5,0-0.9-0.1-1.2c-0.1-0.3-0.3-0.4-0.5-0.5s-0.6-0.1-1-0.1v-0.4
	c1,0,1.8-0.1,2.4-0.2s1.2-0.3,1.7-0.6V21.2z"/>
<path class="st0" d="M148.3,14.5c0.5,0.4,0.8,0.9,0.8,1.6c0,0.5-0.1,0.9-0.4,1.3c-0.3,0.4-0.6,0.7-0.9,1.1c-0.4,0.3-0.9,0.7-1.5,1.1
	c-0.8,0.6-1.4,1-1.7,1.4h3.7c0.3,0,0.5,0,0.7-0.1s0.3-0.1,0.3-0.2s0.1-0.3,0.1-0.5h0.4c0,1.3,0,2.3,0.1,2.9
	c-0.2-0.1-1.1-0.1-2.5-0.1h-4.9v-0.3c0.1-0.2,0.4-0.4,0.9-0.8c0.7-0.6,1.2-1.1,1.6-1.6c0.4-0.5,0.8-1,1.1-1.6s0.5-1.3,0.5-1.9
	c0-0.6-0.1-1-0.4-1.3c-0.3-0.3-0.7-0.4-1.2-0.4c-0.5,0-0.9,0.1-1.3,0.3s-0.7,0.5-1,1l-0.3-0.2c0.8-1.4,2.2-2.1,4-2.1
	C147.1,13.9,147.8,14.1,148.3,14.5z"/>
<path class="st0" d="M54.8,70.6c0.5,0.4,0.8,0.8,0.8,1.4c0,0.6-0.3,1.2-0.9,1.7c-0.6,0.5-1.5,0.9-2.5,1.1c1.2,0,2.2,0.2,2.9,0.6
	c0.8,0.5,1.1,1.1,1.1,2c0,0.8-0.4,1.6-1.1,2.2c-0.7,0.7-1.6,1.2-2.7,1.5c-1.1,0.4-2.2,0.5-3.4,0.5v-0.3c0.7,0,1.5-0.2,2.2-0.5
	c0.7-0.3,1.3-0.8,1.8-1.3s0.7-1.3,0.7-2.1c0-0.7-0.2-1.2-0.5-1.6c-0.3-0.4-0.8-0.7-1.3-0.7c-0.2,0.1-0.3,0.1-0.5,0.2
	c-0.2,0.1-0.3,0.1-0.4,0.1c-0.2,0-0.3-0.1-0.3-0.2c0-0.1,0.1-0.2,0.2-0.3c0.1-0.1,0.2-0.1,0.4-0.1c0.1,0,0.2,0,0.3,0
	c0.1,0,0.2,0,0.3,0c0.9-0.6,1.3-1.4,1.3-2.3c0-0.5-0.1-0.9-0.4-1.1S52.2,71,51.7,71c-0.5,0-0.9,0.1-1.2,0.3s-0.7,0.6-1,1l-0.3-0.2
	c0.4-0.6,0.8-1.2,1.4-1.5c0.6-0.4,1.3-0.6,2.2-0.6C53.6,70,54.3,70.2,54.8,70.6z"/>
<path class="st0" d="M148.5,78.5v3h-2v-3h-4.6v-0.4l6.3-8.1h0.3v6.7h0.1c0.3,0,0.5,0,0.7-0.1c0.2,0,0.3-0.1,0.3-0.2s0.1-0.3,0.1-0.5
	h0.4c0,1.2,0,2.1,0.1,2.6C150,78.5,149.5,78.5,148.5,78.5z M146.5,76.7v-4l-3.1,4H146.5z"/>
</svg>
